<svg xmlns="http://www.w3.org/2000/svg" viewBox="0 0 2400 800" width="2400" height="800" role="img">
  <defs>
    <linearGradient id="bo-bg" x1="0" y1="0" x2="0" y2="1">
      <stop offset="0" stop-color="#1F4A72"/><stop offset="1" stop-color="#071B30"/>
    </linearGradient>
    <linearGradient id="bo-ln" gradientUnits="userSpaceOnUse" x1="0" y1="0" x2="0" y2="800">
      <stop offset="0" stop-color="#D9BD77" stop-opacity="0.9"/>
      <stop offset="1" stop-color="#C8A44D" stop-opacity="0.6"/>
    </linearGradient>
    <radialGradient id="bo-sun" cx="0.78" cy="0.3" r="0.5">
      <stop offset="0" stop-color="#C8A44D" stop-opacity="0.4"/>
      <stop offset="1" stop-color="#C8A44D" stop-opacity="0"/>
    </radialGradient>
    <linearGradient id="bo-fade" x1="0" y1="0" x2="1" y2="0">
      <stop offset="0" stop-color="#071B30" stop-opacity="0.92"/>
      <stop offset="0.55" stop-color="#071B30" stop-opacity="0.25"/>
      <stop offset="1" stop-color="#071B30" stop-opacity="0"/>
    </linearGradient>
  </defs>
  <rect width="2400" height="800" fill="url(#bo-bg)"/>
  <rect width="2400" height="800" fill="url(#bo-sun)"/>
  <g stroke="#C8A44D" stroke-opacity="0.09">
    <line x1="0" y1="0" x2="0" y2="800"/><line x1="60" y1="0" x2="60" y2="800"/><line x1="120" y1="0" x2="120" y2="800"/><line x1="180" y1="0" x2="180" y2="800"/><line x1="240" y1="0" x2="240" y2="800"/><line x1="300" y1="0" x2="300" y2="800"/><line x1="360" y1="0" x2="360" y2="800"/><line x1="420" y1="0" x2="420" y2="800"/><line x1="480" y1="0" x2="480" y2="800"/><line x1="540" y1="0" x2="540" y2="800"/><line x1="600" y1="0" x2="600" y2="800"/><line x1="660" y1="0" x2="660" y2="800"/><line x1="720" y1="0" x2="720" y2="800"/><line x1="780" y1="0" x2="780" y2="800"/><line x1="840" y1="0" x2="840" y2="800"/><line x1="900" y1="0" x2="900" y2="800"/><line x1="960" y1="0" x2="960" y2="800"/><line x1="1020" y1="0" x2="1020" y2="800"/><line x1="1080" y1="0" x2="1080" y2="800"/><line x1="1140" y1="0" x2="1140" y2="800"/><line x1="1200" y1="0" x2="1200" y2="800"/><line x1="1260" y1="0" x2="1260" y2="800"/><line x1="1320" y1="0" x2="1320" y2="800"/><line x1="1380" y1="0" x2="1380" y2="800"/><line x1="1440" y1="0" x2="1440" y2="800"/><line x1="1500" y1="0" x2="1500" y2="800"/><line x1="1560" y1="0" x2="1560" y2="800"/><line x1="1620" y1="0" x2="1620" y2="800"/><line x1="1680" y1="0" x2="1680" y2="800"/><line x1="1740" y1="0" x2="1740" y2="800"/><line x1="1800" y1="0" x2="1800" y2="800"/><line x1="1860" y1="0" x2="1860" y2="800"/><line x1="1920" y1="0" x2="1920" y2="800"/><line x1="1980" y1="0" x2="1980" y2="800"/><line x1="2040" y1="0" x2="2040" y2="800"/><line x1="2100" y1="0" x2="2100" y2="800"/><line x1="2160" y1="0" x2="2160" y2="800"/><line x1="2220" y1="0" x2="2220" y2="800"/><line x1="2280" y1="0" x2="2280" y2="800"/><line x1="2340" y1="0" x2="2340" y2="800"/>
  </g>
  <g fill="none" stroke="url(#bo-ln)" stroke-width="2" stroke-linejoin="round" stroke-linecap="square">
    <rect x="560" y="420" width="90" height="180"/>
    <line x1="568" y1="454" x2="642" y2="454" stroke-opacity="0.35"/>
    <line x1="568" y1="488" x2="642" y2="488" stroke-opacity="0.35"/>
    <line x1="568" y1="522" x2="642" y2="522" stroke-opacity="0.35"/>
    <line x1="568" y1="556" x2="642" y2="556" stroke-opacity="0.35"/>
    <rect x="680" y="300" width="127" height="300"/>
    <line x1="688" y1="334" x2="799" y2="334" stroke-opacity="0.35"/>
    <line x1="688" y1="368" x2="799" y2="368" stroke-opacity="0.35"/>
    <line x1="688" y1="402" x2="799" y2="402" stroke-opacity="0.35"/>
    <line x1="688" y1="436" x2="799" y2="436" stroke-opacity="0.35"/>
    <line x1="688" y1="470" x2="799" y2="470" stroke-opacity="0.35"/>
    <line x1="688" y1="504" x2="799" y2="504" stroke-opacity="0.35"/>
    <line x1="688" y1="538" x2="799" y2="538" stroke-opacity="0.35"/>
    <line x1="688" y1="572" x2="799" y2="572" stroke-opacity="0.35"/>
    <rect x="837" y="360" width="94" height="240"/>
    <line x1="845" y1="394" x2="923" y2="394" stroke-opacity="0.35"/>
    <line x1="845" y1="428" x2="923" y2="428" stroke-opacity="0.35"/>
    <line x1="845" y1="462" x2="923" y2="462" stroke-opacity="0.35"/>
    <line x1="845" y1="496" x2="923" y2="496" stroke-opacity="0.35"/>
    <line x1="845" y1="530" x2="923" y2="530" stroke-opacity="0.35"/>
    <line x1="845" y1="564" x2="923" y2="564" stroke-opacity="0.35"/>
    <rect x="961" y="220" width="131" height="380"/>
    <line x1="969" y1="254" x2="1084" y2="254" stroke-opacity="0.35"/>
    <line x1="969" y1="288" x2="1084" y2="288" stroke-opacity="0.35"/>
    <line x1="969" y1="322" x2="1084" y2="322" stroke-opacity="0.35"/>
    <line x1="969" y1="356" x2="1084" y2="356" stroke-opacity="0.35"/>
    <line x1="969" y1="390" x2="1084" y2="390" stroke-opacity="0.35"/>
    <line x1="969" y1="424" x2="1084" y2="424" stroke-opacity="0.35"/>
    <line x1="969" y1="458" x2="1084" y2="458" stroke-opacity="0.35"/>
    <line x1="969" y1="492" x2="1084" y2="492" stroke-opacity="0.35"/>
    <line x1="969" y1="526" x2="1084" y2="526" stroke-opacity="0.35"/>
    <line x1="969" y1="560" x2="1084" y2="560" stroke-opacity="0.35"/>
    <rect x="1122" y="390" width="98" height="210"/>
    <line x1="1130" y1="424" x2="1212" y2="424" stroke-opacity="0.35"/>
    <line x1="1130" y1="458" x2="1212" y2="458" stroke-opacity="0.35"/>
    <line x1="1130" y1="492" x2="1212" y2="492" stroke-opacity="0.35"/>
    <line x1="1130" y1="526" x2="1212" y2="526" stroke-opacity="0.35"/>
    <line x1="1130" y1="560" x2="1212" y2="560" stroke-opacity="0.35"/>
    <rect x="1250" y="270" width="135" height="330"/>
    <line x1="1258" y1="304" x2="1377" y2="304" stroke-opacity="0.35"/>
    <line x1="1258" y1="338" x2="1377" y2="338" stroke-opacity="0.35"/>
    <line x1="1258" y1="372" x2="1377" y2="372" stroke-opacity="0.35"/>
    <line x1="1258" y1="406" x2="1377" y2="406" stroke-opacity="0.35"/>
    <line x1="1258" y1="440" x2="1377" y2="440" stroke-opacity="0.35"/>
    <line x1="1258" y1="474" x2="1377" y2="474" stroke-opacity="0.35"/>
    <line x1="1258" y1="508" x2="1377" y2="508" stroke-opacity="0.35"/>
    <line x1="1258" y1="542" x2="1377" y2="542" stroke-opacity="0.35"/>
    <line x1="1258" y1="576" x2="1377" y2="576" stroke-opacity="0.35"/>
    <rect x="1415" y="330" width="102" height="270"/>
    <line x1="1423" y1="364" x2="1509" y2="364" stroke-opacity="0.35"/>
    <line x1="1423" y1="398" x2="1509" y2="398" stroke-opacity="0.35"/>
    <line x1="1423" y1="432" x2="1509" y2="432" stroke-opacity="0.35"/>
    <line x1="1423" y1="466" x2="1509" y2="466" stroke-opacity="0.35"/>
    <line x1="1423" y1="500" x2="1509" y2="500" stroke-opacity="0.35"/>
    <line x1="1423" y1="534" x2="1509" y2="534" stroke-opacity="0.35"/>
    <line x1="1423" y1="568" x2="1509" y2="568" stroke-opacity="0.35"/>
    <rect x="1547" y="180" width="139" height="420"/>
    <line x1="1555" y1="214" x2="1678" y2="214" stroke-opacity="0.35"/>
    <line x1="1555" y1="248" x2="1678" y2="248" stroke-opacity="0.35"/>
    <line x1="1555" y1="282" x2="1678" y2="282" stroke-opacity="0.35"/>
    <line x1="1555" y1="316" x2="1678" y2="316" stroke-opacity="0.35"/>
    <line x1="1555" y1="350" x2="1678" y2="350" stroke-opacity="0.35"/>
    <line x1="1555" y1="384" x2="1678" y2="384" stroke-opacity="0.35"/>
    <line x1="1555" y1="418" x2="1678" y2="418" stroke-opacity="0.35"/>
    <line x1="1555" y1="452" x2="1678" y2="452" stroke-opacity="0.35"/>
    <line x1="1555" y1="486" x2="1678" y2="486" stroke-opacity="0.35"/>
    <line x1="1555" y1="520" x2="1678" y2="520" stroke-opacity="0.35"/>
    <line x1="1555" y1="554" x2="1678" y2="554" stroke-opacity="0.35"/>
    <rect x="1716" y="360" width="106" height="240"/>
    <line x1="1724" y1="394" x2="1814" y2="394" stroke-opacity="0.35"/>
    <line x1="1724" y1="428" x2="1814" y2="428" stroke-opacity="0.35"/>
    <line x1="1724" y1="462" x2="1814" y2="462" stroke-opacity="0.35"/>
    <line x1="1724" y1="496" x2="1814" y2="496" stroke-opacity="0.35"/>
    <line x1="1724" y1="530" x2="1814" y2="530" stroke-opacity="0.35"/>
    <line x1="1724" y1="564" x2="1814" y2="564" stroke-opacity="0.35"/>
    <rect x="1852" y="290" width="143" height="310"/>
    <line x1="1860" y1="324" x2="1987" y2="324" stroke-opacity="0.35"/>
    <line x1="1860" y1="358" x2="1987" y2="358" stroke-opacity="0.35"/>
    <line x1="1860" y1="392" x2="1987" y2="392" stroke-opacity="0.35"/>
    <line x1="1860" y1="426" x2="1987" y2="426" stroke-opacity="0.35"/>
    <line x1="1860" y1="460" x2="1987" y2="460" stroke-opacity="0.35"/>
    <line x1="1860" y1="494" x2="1987" y2="494" stroke-opacity="0.35"/>
    <line x1="1860" y1="528" x2="1987" y2="528" stroke-opacity="0.35"/>
    <line x1="1860" y1="562" x2="1987" y2="562" stroke-opacity="0.35"/>
    <rect x="2025" y="410" width="110" height="190"/>
    <line x1="2033" y1="444" x2="2127" y2="444" stroke-opacity="0.35"/>
    <line x1="2033" y1="478" x2="2127" y2="478" stroke-opacity="0.35"/>
    <line x1="2033" y1="512" x2="2127" y2="512" stroke-opacity="0.35"/>
    <line x1="2033" y1="546" x2="2127" y2="546" stroke-opacity="0.35"/>
    <rect x="2165" y="250" width="147" height="350"/>
    <line x1="2173" y1="284" x2="2304" y2="284" stroke-opacity="0.35"/>
    <line x1="2173" y1="318" x2="2304" y2="318" stroke-opacity="0.35"/>
    <line x1="2173" y1="352" x2="2304" y2="352" stroke-opacity="0.35"/>
    <line x1="2173" y1="386" x2="2304" y2="386" stroke-opacity="0.35"/>
    <line x1="2173" y1="420" x2="2304" y2="420" stroke-opacity="0.35"/>
    <line x1="2173" y1="454" x2="2304" y2="454" stroke-opacity="0.35"/>
    <line x1="2173" y1="488" x2="2304" y2="488" stroke-opacity="0.35"/>
    <line x1="2173" y1="522" x2="2304" y2="522" stroke-opacity="0.35"/>
    <line x1="2173" y1="556" x2="2304" y2="556" stroke-opacity="0.35"/>
    <rect x="2342" y="340" width="114" height="260"/>
    <line x1="2350" y1="374" x2="2448" y2="374" stroke-opacity="0.35"/>
    <line x1="2350" y1="408" x2="2448" y2="408" stroke-opacity="0.35"/>
    <line x1="2350" y1="442" x2="2448" y2="442" stroke-opacity="0.35"/>
    <line x1="2350" y1="476" x2="2448" y2="476" stroke-opacity="0.35"/>
    <line x1="2350" y1="510" x2="2448" y2="510" stroke-opacity="0.35"/>
    <line x1="2350" y1="544" x2="2448" y2="544" stroke-opacity="0.35"/>
    <line x1="2350" y1="578" x2="2448" y2="578" stroke-opacity="0.35"/>
    <rect x="2486" y="300" width="151" height="300"/>
    <line x1="2494" y1="334" x2="2629" y2="334" stroke-opacity="0.35"/>
    <line x1="2494" y1="368" x2="2629" y2="368" stroke-opacity="0.35"/>
    <line x1="2494" y1="402" x2="2629" y2="402" stroke-opacity="0.35"/>
    <line x1="2494" y1="436" x2="2629" y2="436" stroke-opacity="0.35"/>
    <line x1="2494" y1="470" x2="2629" y2="470" stroke-opacity="0.35"/>
    <line x1="2494" y1="504" x2="2629" y2="504" stroke-opacity="0.35"/>
    <line x1="2494" y1="538" x2="2629" y2="538" stroke-opacity="0.35"/>
    <line x1="2494" y1="572" x2="2629" y2="572" stroke-opacity="0.35"/>
    <path d="M480 600 H2400"/>
  </g>
  <g stroke="#C8A44D" stroke-opacity="0.22" stroke-width="2" stroke-linecap="round">
    <line x1="520" y1="630" x2="610" y2="630"/>
    <line x1="711" y1="640" x2="914" y2="640"/>
    <line x1="902" y1="650" x2="1218" y2="650"/>
    <line x1="1093" y1="660" x2="1262" y2="660"/>
    <line x1="1284" y1="670" x2="1566" y2="670"/>
    <line x1="1475" y1="680" x2="1610" y2="680"/>
    <line x1="1666" y1="690" x2="1914" y2="690"/>
    <line x1="1857" y1="700" x2="1958" y2="700"/>
    <line x1="548" y1="710" x2="762" y2="710"/>
    <line x1="739" y1="720" x2="1066" y2="720"/>
    <line x1="930" y1="730" x2="1110" y2="730"/>
    <line x1="1121" y1="740" x2="1414" y2="740"/>
    <line x1="1312" y1="750" x2="1458" y2="750"/>
    <line x1="1503" y1="760" x2="1762" y2="760"/>
    <line x1="1694" y1="770" x2="1806" y2="770"/>
    <line x1="1885" y1="780" x2="2110" y2="780"/>
  </g>
  <rect width="2400" height="800" fill="url(#bo-fade)"/>
  <rect x="0.5" y="0.5" width="2399" height="799" fill="none" stroke="#C8A44D" stroke-opacity="0.3"/>
</svg>
