<svg xmlns="http://www.w3.org/2000/svg" viewBox="0 0 800 600" width="800" height="600" role="img">
  <defs>
    <linearGradient id="tr-sky" x1="0" y1="0" x2="0" y2="1">
      <stop offset="0" stop-color="#1F4A72"/>
      <stop offset="1" stop-color="#071B30"/>
    </linearGradient>
    <radialGradient id="tr-sun" cx="0.72" cy="0.26" r="0.34">
      <stop offset="0" stop-color="#C8A44D" stop-opacity="0.55"/>
      <stop offset="1" stop-color="#C8A44D" stop-opacity="0"/>
    </radialGradient>
    <!-- userSpaceOnUse là bắt buộc: với objectBoundingBox, một nét thẳng đứng
         hay nằm ngang có bbox rộng/cao bằng 0 nên SVG bỏ không vẽ. -->
    <linearGradient id="tr-line" gradientUnits="userSpaceOnUse" x1="0" y1="0" x2="0" y2="600">
      <stop offset="0" stop-color="#D9BD77" stop-opacity="1"/>
      <stop offset="1" stop-color="#C8A44D" stop-opacity="0.78"/>
    </linearGradient>
  </defs>
  <rect width="800" height="600" fill="url(#tr-sky)"/>
  <rect width="800" height="600" fill="url(#tr-sun)"/>
  <g stroke="#C8A44D" stroke-opacity="0.10" stroke-width="1">
    <line x1="0" y1="0" x2="0" y2="600"/><line x1="48" y1="0" x2="48" y2="600"/><line x1="96" y1="0" x2="96" y2="600"/><line x1="144" y1="0" x2="144" y2="600"/><line x1="192" y1="0" x2="192" y2="600"/><line x1="240" y1="0" x2="240" y2="600"/><line x1="288" y1="0" x2="288" y2="600"/><line x1="336" y1="0" x2="336" y2="600"/><line x1="384" y1="0" x2="384" y2="600"/><line x1="432" y1="0" x2="432" y2="600"/><line x1="480" y1="0" x2="480" y2="600"/><line x1="528" y1="0" x2="528" y2="600"/><line x1="576" y1="0" x2="576" y2="600"/><line x1="624" y1="0" x2="624" y2="600"/><line x1="672" y1="0" x2="672" y2="600"/><line x1="720" y1="0" x2="720" y2="600"/><line x1="768" y1="0" x2="768" y2="600"/>
  </g>
  <g fill="none" stroke="url(#tr-line)" stroke-width="1.6" stroke-linejoin="round" stroke-linecap="square">
    <path d="M300 340 a100 92 0 0 1 200 0"/>
    <path d="M300 340 h200 v100 h-200 z"/>
    <path d="M400 248 v-30 l-10 -18 h20 l-10 18"/>
    <path d="M338 316 a62 56 0 0 1 124 0" stroke-opacity="0.45"/>
    <path d="M348 372 a52 40 0 0 1 104 0 v68 h-104 z"/>
    <rect x="259" y="236" width="18" height="204"/>
     <path d="M253 236 h30"/>
     <path d="M255 224 h26 l-13 -34 z"/>
     <path d="M268 190 v-22"/>
     <path d="M259 300 h18 M259 356 h18" stroke-opacity="0.5"/>
    <rect x="523" y="236" width="18" height="204"/>
     <path d="M517 236 h30"/>
     <path d="M519 224 h26 l-13 -34 z"/>
     <path d="M532 190 v-22"/>
     <path d="M523 300 h18 M523 356 h18" stroke-opacity="0.5"/>
    <path d="M170 392 a58 52 0 0 1 116 0 v48 h-116 z" stroke-opacity="0.55"/>
    <path d="M514 400 a54 48 0 0 1 108 0 v40 h-108 z" stroke-opacity="0.55"/>
    <path d="M60 440 h680"/>
  </g>
  <g stroke="#C8A44D" stroke-opacity="0.28" stroke-width="1.2" stroke-linecap="round">
    <line x1="30" y1="462.0" x2="70" y2="462.0"/>
    <line x1="167" y1="471.9" x2="274" y2="471.9"/>
    <line x1="304" y1="481.7" x2="478" y2="481.7"/>
    <line x1="441" y1="491.6" x2="522" y2="491.6"/>
    <line x1="578" y1="501.4" x2="726" y2="501.4"/>
    <line x1="135" y1="511.3" x2="190" y2="511.3"/>
    <line x1="272" y1="521.1" x2="394" y2="521.1"/>
    <line x1="409" y1="531.0" x2="598" y2="531.0"/>
    <line x1="546" y1="540.9" x2="642" y2="540.9"/>
    <line x1="103" y1="550.7" x2="266" y2="550.7"/>
    <line x1="240" y1="560.6" x2="310" y2="560.6"/>
    <line x1="377" y1="570.4" x2="514" y2="570.4"/>
    <line x1="514" y1="580.3" x2="558" y2="580.3"/>
    <line x1="71" y1="590.1" x2="182" y2="590.1"/>
  </g>
  <rect x="0.5" y="0.5" width="799" height="599" fill="none" stroke="#C8A44D" stroke-opacity="0.35"/>
</svg>
